<?xml version="1.0" encoding="utf-8"?>
<!-- Generator: Adobe Illustrator 27.4.1, SVG Export Plug-In . SVG Version: 6.00 Build 0)  -->
<svg version="1.1" id="Layer_1" xmlns="http://www.w3.org/2000/svg" xmlns:xlink="http://www.w3.org/1999/xlink" x="0px" y="0px"
	 viewBox="0 0 728.5 133.2" style="enable-background:new 0 0 728.5 133.2;" xml:space="preserve">
<style type="text/css">
	.st0{fill-rule:evenodd;clip-rule:evenodd;fill:#8C989B;}
	.st1{fill-rule:evenodd;clip-rule:evenodd;fill:#264183;}
	.st2{fill:#264183;}
	.st3{fill:#8C989B;}
</style>
<g>
	<g>
		<path class="st0" d="M99.9,88.6c0,6.6-6.1,11.8-13,10.2c-3.8-0.9-6.9-3.9-7.8-7.7c-1.6-6.9,3.6-13,10.2-13
			C95.2,78,99.9,82.8,99.9,88.6L99.9,88.6z"/>
		<path class="st1" d="M55.7,44.7c0,6.6-6.1,11.8-13,10.2c-3.8-0.9-6.9-3.9-7.8-7.7c-1.6-6.9,3.6-13,10.2-13
			C51,34.2,55.7,38.9,55.7,44.7L55.7,44.7L55.7,44.7z"/>
	</g>
	<path class="st2" d="M132.7,11.7v109.8c0,5.8-4.7,10.5-10.5,10.5H56.5l21.8-21.8c3.3,1.7,7.1,2.7,11.1,2.7c5.8,0,11.2-2.1,15.4-5.5
		c1.2-1,2.4-2.2,3.4-3.4c4.2-5.1,6.4-11.8,5.3-19.1c-1.5-10.3-9.2-18.4-19.5-20.3c-5.8-1.1-11.3-0.1-16,2.3L66.8,55.7
		c1.7-3.3,2.7-7,2.7-11s-1-8-2.8-11.4L98.8,1.2h23.3C128,1.2,132.7,5.9,132.7,11.7z"/>
	<path class="st3" d="M65,88.6c0,4,1,7.7,2.7,11l-32.5,32.4H12.4c-0.8,0-1.6-0.1-2.5-0.3c-3.8-0.9-6.9-3.9-7.8-7.7
		c-0.2-0.8-0.3-1.7-0.3-2.5V11.7c0-5.8,4.7-10.5,10.5-10.5h65.2L55.9,22.8c-3.2-1.6-6.9-2.5-10.7-2.5c-5.8,0-11.2,2-15.4,5.5l0,0
		c-1.2,1-2.4,2.1-3.4,3.4c-0.7,0.8-0.7,0.8,0,0c-4.5,5.5-6.7,12.9-5,20.8c2,9.4,9.4,16.7,18.8,18.5c5.9,1.2,11.4,0.2,16.1-2.2
		l11.4,11.4C66,81,65,84.7,65,88.6L65,88.6z"/>
</g>
<g>
	<path class="st2" d="M214,112.9h-16.5c-0.9,0-1.6-0.7-1.6-1.6V21.9c0-0.9,0.7-1.6,1.6-1.6H214c0.9,0,1.6,0.7,1.6,1.6v89.4
		C215.6,112.2,214.9,112.9,214,112.9z"/>
	<path class="st2" d="M294.9,49.9c0,8.7-2.7,15.8-8.4,21c-5.5,5.2-12.9,7.8-22.4,7.8h-13.7c-0.9,0-1.6,0.7-1.6,1.6v31
		c0,0.9-0.7,1.6-1.6,1.6h-16.5c-0.9,0-1.6-0.7-1.6-1.6V21.9c0-0.9,0.7-1.6,1.6-1.6h33.4c9.5,0,17,2.6,22.4,8
		C292.1,33.5,294.9,40.8,294.9,49.9L294.9,49.9z M275.2,49.9c0-4-1-7-3.1-9c-2-2.1-5-3.1-8.7-3.1h-12.9c-0.9,0-1.6,0.7-1.6,1.6v20.2
		c0,0.9,0.7,1.6,1.6,1.6h12.9c3.8,0,6.6-0.9,8.7-2.9S275.2,53.6,275.2,49.9L275.2,49.9z"/>
	<path class="st2" d="M378.2,62.8v14.3c0,0.9-0.7,1.6-1.6,1.6h-22.3c-0.9,0-1.6,0.7-1.6,1.6v31c0,0.9-0.7,1.6-1.6,1.6h-16.5
		c-0.9,0-1.6-0.7-1.6-1.6V21.9c0-0.9,0.7-1.6,1.6-1.6h56.6c0.9,0,1.6,0.7,1.6,1.6v14.3c0,0.9-0.7,1.6-1.6,1.6h-36.9
		c-0.9,0-1.6,0.7-1.6,1.6v20.3c0,0.9,0.7,1.6,1.6,1.6h22.3C377.5,61.3,378.2,62,378.2,62.8L378.2,62.8z"/>
	<path class="st2" d="M644.8,112.9h-16.5c-0.9,0-1.6-0.7-1.6-1.6V21.9c0-0.9,0.7-1.6,1.6-1.6h16.5c0.9,0,1.6,0.7,1.6,1.6v89.4
		C646.4,112.2,645.7,112.9,644.8,112.9z"/>
	<path class="st2" d="M600,76.2c-0.2-0.5-0.1-1.1,0.4-1.4c1.9-1.1,3.7-2.4,5.3-3.9c5.6-5.2,8.3-12.3,8.3-21c0-1.8-0.1-3.5-0.3-5.1
		c-0.9-6.8-3.5-12.4-8-16.6c-5.5-5.4-12.9-8-22.4-8h-33.4c-0.9,0-1.6,0.7-1.6,1.6v89.4c0,0.9,0.7,1.6,1.6,1.6h16.5
		c0.9,0,1.6-0.7,1.6-1.6v-31c0-0.9,0.7-1.6,1.6-1.6h8.8c0.8,0,1.6,0.5,2,1.3l15,32c0.3,0.6,0.8,0.9,1.4,0.9h19
		c1.2,0,1.9-1.2,1.4-2.3L600,76.2L600,76.2z M591.2,58.3c-2.1,2-5,2.9-8.7,2.9h-12.9c-0.9,0-1.6-0.7-1.6-1.6V39.4
		c0-0.9,0.7-1.6,1.6-1.6h12.9c3.8,0,6.8,1,8.7,3.1c1.6,1.5,2.5,3.5,2.9,6.2c0.3,1.8,0.3,1.8,0,0c0.1,0.9,0.2,1.8,0.2,2.8
		C594.3,53.6,593.3,56.3,591.2,58.3L591.2,58.3z"/>
	<path class="st2" d="M433.3,20.3h-17.4c-0.7,0-1.3,0.5-1.5,1.1l-28.2,89.4c-0.3,1,0.4,2.1,1.5,2.1h17c0.7,0,1.3-0.5,1.5-1.2
		l4.2-15.2c0.2-0.7,0.8-1.2,1.5-1.2h25.2c0.7,0,1.3,0.5,1.5,1.2l4.2,15.2c0.2,0.7,0.8,1.2,1.5,1.2h17c1.1,0,1.8-1,1.5-2.1
		l-28.2-89.4C434.6,20.8,434,20.3,433.3,20.3L433.3,20.3z M416,76.9l7.6-27.3c0.3-1,1.7-1,2,0l7.6,27.3c0.2,0.8-0.4,1.7-1.3,1.7
		h-14.8C416.4,78.6,415.7,77.8,416,76.9L416,76.9z"/>
	<path class="st2" d="M533.9,72.6c-1.5-2.6-3.5-4.6-6-6.3c-0.6-0.4-0.6-1.2-0.1-1.6c1-1,2.4-2.3,3.1-3.2c0.5-0.6,0.9-1.3,1.3-2
		c2.3-3.7,3.4-8,3.4-13c0-8.1-2.7-14.5-8.2-19.1c-5.4-4.7-12.7-7-22.1-7h-32.8c-0.9,0-1.6,0.7-1.6,1.6v89.4c0,0.9,0.7,1.6,1.6,1.6
		h35.9c9,0,16.2-2.3,21.3-7.2c5.1-4.7,7.7-11.5,7.7-20C537.3,80.7,536.1,76.3,533.9,72.6L533.9,72.6z M490.6,39.4
		c0-0.9,0.7-1.6,1.6-1.6l12.8,0c3.7,0,6.4,0.8,8.2,2.4c0.1,0,0.1,0.1,0.2,0.2c1.6,1.7,2.5,4,2.5,7c0,3.4-0.9,5.8-2.7,7.7
		c-1.7,1.7-4.4,2.6-8.2,2.6l-12.8,0c-0.9,0-1.6-0.7-1.6-1.6L490.6,39.4L490.6,39.4z M514.8,92.7c-1.7,1.8-4.4,2.7-8.2,2.7h-14.5
		c-0.9,0-1.6-0.7-1.6-1.6V76.2c0-0.9,0.7-1.6,1.6-1.6h14.5c3.7,0,6.4,0.9,8.3,2.5c0.1,0.1,0.1,0.1,0.2,0.2c1.6,1.8,2.5,4.1,2.5,7.3
		C517.6,88.1,516.7,90.7,514.8,92.7L514.8,92.7z"/>
	<path class="st2" d="M703.8,92.7c-2.2,2.3-5.6,3.5-10.2,3.5c-5.1,0-8.8-1.4-11.1-4.4c-2.3-3-3.5-8.1-3.5-15.1V56.6
		c0-7,1.2-12.1,3.5-15.1c2.3-3,6-4.4,11.1-4.4c4.6,0,8,1.2,10.2,3.5c2,2,3.2,4.8,3.5,8.2c0.1,0.8,0.8,1.5,1.6,1.5h16.3
		c0.9,0,1.6-0.7,1.6-1.6c-0.3-9.2-3.3-16.2-9-21.4c-6-5.3-14.2-8.1-24.5-8.1c-22.6,0-34,12.5-34,37.2v20.6c0,24.7,11.5,37.2,34,37.2
		c10.3,0,18.5-2.7,24.5-8.1c5.6-5.1,8.6-12.2,9-21.4c0-0.9-0.7-1.6-1.6-1.6h-16.3c-0.8,0-1.5,0.6-1.6,1.5
		C707,87.9,705.8,90.6,703.8,92.7L703.8,92.7z"/>
</g>
</svg>
