<?xml version="1.0" encoding="utf-8"?>
<!-- Generator: Adobe Illustrator 27.4.1, SVG Export Plug-In . SVG Version: 6.00 Build 0)  -->
<svg version="1.1" id="Layer_1" xmlns="http://www.w3.org/2000/svg" xmlns:xlink="http://www.w3.org/1999/xlink" x="0px" y="0px"
	 viewBox="0 0 340.2 340.2" style="enable-background:new 0 0 340.2 340.2;" xml:space="preserve">
<style type="text/css">
	.st0{fill-rule:evenodd;clip-rule:evenodd;fill:#FFFFFF;}
	.st1{fill:#FFFFFF;}
</style>
<g>
	<path class="st0" d="M254.9,227.1c0,17.2-15.8,30.6-33.7,26.5c-9.9-2.2-17.9-10.2-20.2-20.1c-4.1-17.9,9.4-33.8,26.6-33.8
		C242.6,199.7,254.9,212,254.9,227.1L254.9,227.1L254.9,227.1z"/>
	<path class="st0" d="M140.1,113.2c0,17.2-15.9,30.6-33.8,26.5c-9.8-2.2-17.9-10.2-20.1-20.1c-4.1-17.9,9.4-33.8,26.6-33.8
		C127.8,85.9,140.1,98.1,140.1,113.2L140.1,113.2L140.1,113.2z"/>
</g>
<path class="st1" d="M339.9,27.6v285c0,15.1-12.2,27.2-27.3,27.2H142.2l56.6-56.5c8.6,4.4,18.4,6.9,28.7,6.9
	c15.2,0,29.1-5.3,40-14.2c3.2-2.6,6.2-5.6,8.9-8.8c10.9-13.1,16.5-30.7,13.8-49.6c-3.9-26.7-23.9-47.7-50.5-52.7
	c-15.1-2.9-29.4-0.2-41.5,6L169,141.8c4.4-8.6,6.9-18.3,6.9-28.6s-2.7-20.7-7.3-29.6l83.5-83.3h60.5
	C327.6,0.3,339.9,12.5,339.9,27.6z"/>
<path class="st1" d="M164.2,227c0,10.3,2.5,20,6.9,28.6l-84.3,84.2H27.6c-2.1,0-4.2-0.2-6.4-0.7c-9.9-2.2-17.9-10.2-20.2-20
	c-0.5-2.2-0.7-4.4-0.7-6.5v-285c0-15.1,12.2-27.3,27.3-27.3h169.1l-56.2,56.1c-8.4-4.2-17.8-6.5-27.9-6.5
	c-15.2,0-29.1,5.3-39.9,14.2h0c-3.2,2.6-6.2,5.6-8.8,8.8c-1.8,2.1-1.8,2.1,0,0c-11.7,14.2-17.4,33.5-13,54
	c5.1,24.3,24.4,43.2,48.7,48.1c15.2,3.1,29.6,0.6,41.8-5.6l29.6,29.5C166.6,207.4,164.2,216.9,164.2,227L164.2,227z"/>
</svg>
