<?xml version="1.0" encoding="UTF-8"?>
<svg id="Layer_1" data-name="Layer 1" xmlns="http://www.w3.org/2000/svg" viewBox="0 0 1011.65 207.37">
  <defs>
    <style>
      .cls-1, .cls-2 {
        fill: #fff;
      }

      .cls-2 {
        fill-rule: evenodd;
      }
    </style>
  </defs>
  <g>
    <g>
      <path class="cls-2" d="m106.51,95.74c0,7.11-6.56,12.67-13.98,11-4.09-.92-7.42-4.23-8.36-8.31-1.71-7.41,3.88-14.01,11.01-14.01,6.26,0,11.33,5.08,11.33,11.32h0Z"/>
      <path class="cls-2" d="m58.94,48.54c0,7.12-6.58,12.68-14,10.99-4.08-.93-7.41-4.24-8.34-8.32-1.7-7.41,3.89-13.99,11.02-13.99,6.26,0,11.33,5.07,11.33,11.32h0Z"/>
    </g>
    <path class="cls-1" d="m141.75,13.08v118.13c0,6.25-5.08,11.3-11.33,11.3H59.82l23.47-23.44c3.58,1.82,7.62,2.86,11.89,2.86,6.29,0,12.06-2.21,16.57-5.88,1.34-1.09,2.57-2.31,3.67-3.64,4.51-5.45,6.86-12.74,5.72-20.57-1.6-11.07-9.92-19.76-20.92-21.84-6.26-1.19-12.19-.09-17.19,2.49l-12.11-12.08c1.82-3.58,2.87-7.59,2.87-11.87s-1.11-8.59-3.04-12.25L105.36,1.75h25.07c6.26,0,11.33,5.08,11.33,11.33Z"/>
    <path class="cls-1" d="m.99,131.18V13.04C.99,6.79,6.07,1.75,12.32,1.75h70.6l-23.47,23.44c-3.58-1.82-7.62-2.86-11.89-2.86-6.29,0-12.06,2.21-16.57,5.88-1.34,1.09-2.57,2.31-3.67,3.64-4.51,5.45-6.86,12.74-5.72,20.57,1.6,11.07,9.92,19.76,20.92,21.84,6.26,1.19,12.19.09,17.19-2.49l12.11,12.08c-1.82,3.58-2.87,7.59-2.87,11.87s1.11,8.59,3.04,12.25l-34.6,34.54H12.32c-6.26,0-11.33-5.08-11.33-11.33Z"/>
  </g>
  <g>
    <path class="cls-1" d="m236.49,142.11h-24.97c-1.32,0-2.4-1.07-2.4-2.4V4.56c0-1.32,1.07-2.4,2.4-2.4h24.97c1.32,0,2.4,1.07,2.4,2.4v135.16c0,1.32-1.07,2.4-2.4,2.4Z"/>
    <path class="cls-1" d="m358.72,46.91c0,13.21-4.14,23.85-12.61,31.74-8.28,7.88-19.52,11.83-33.9,11.83h-20.67c-1.32,0-2.4,1.07-2.4,2.4v46.85c0,1.32-1.07,2.4-2.4,2.4h-24.97c-1.32,0-2.4-1.07-2.4-2.4V4.56c0-1.32,1.07-2.4,2.4-2.4h50.43c14.39,0,25.63,3.94,33.9,12.02,8.48,7.88,12.62,18.92,12.62,32.72Zm-29.76,0c0-6.11-1.57-10.64-4.73-13.6-2.96-3.15-7.49-4.73-13.2-4.73h-19.49c-1.32,0-2.4,1.07-2.4,2.4v30.49c0,1.32,1.07,2.4,2.4,2.4h19.49c5.71,0,10.05-1.38,13.2-4.33,3.16-2.96,4.73-7.09,4.73-12.62Z"/>
    <path class="cls-1" d="m484.72,66.46v21.62c0,1.32-1.07,2.4-2.4,2.4h-33.74c-1.32,0-2.4,1.07-2.4,2.4v46.85c0,1.32-1.07,2.4-2.4,2.4h-24.97c-1.32,0-2.4-1.07-2.4-2.4V4.56c0-1.32,1.07-2.4,2.4-2.4h85.49c1.32,0,2.4,1.07,2.4,2.4v21.62c0,1.32-1.07,2.4-2.4,2.4h-55.72c-1.32,0-2.4,1.07-2.4,2.4v30.69c0,1.32,1.07,2.4,2.4,2.4h33.74c1.32,0,2.4,1.07,2.4,2.4Z"/>
    <path class="cls-1" d="m887.54,142.11h-24.97c-1.32,0-2.4-1.07-2.4-2.4V4.56c0-1.32,1.07-2.4,2.4-2.4h24.97c1.32,0,2.4,1.07,2.4,2.4v135.16c0,1.32-1.07,2.4-2.4,2.4Z"/>
    <path class="cls-1" d="m819.83,86.55c-.37-.74-.11-1.65.61-2.07,2.83-1.62,5.64-3.64,7.96-5.84,8.48-7.88,12.62-18.53,12.62-31.74,0-2.67-.15-5.23-.47-7.7-1.29-10.26-5.31-18.66-12.15-25.02-8.27-8.08-19.51-12.03-33.9-12.03h-50.43c-1.32,0-2.4,1.07-2.4,2.4v135.17c0,1.32,1.07,2.4,2.4,2.4h24.98c1.32,0,2.4-1.07,2.4-2.4v-46.86c0-1.32,1.07-2.4,2.4-2.4h13.32c1.28,0,2.44.74,2.98,1.9l22.63,48.37c.39.84,1.24,1.38,2.17,1.38h28.71c1.78,0,2.94-1.87,2.14-3.46l-25.96-52.11Zm-13.31-27.02c-3.16,2.95-7.49,4.33-13.21,4.33h-19.48c-1.32,0-2.4-1.07-2.4-2.4v-30.49c0-1.32,1.07-2.4,2.4-2.4h19.48c5.72,0,10.25,1.58,13.21,4.74,2.36,2.21,3.84,5.31,4.43,9.31t0,.02c.2,1.33.3,2.75.3,4.26,0,5.52-1.57,9.66-4.73,12.62Z"/>
    <path class="cls-1" d="m567.87,2.17h-26.22c-1.05,0-1.97.68-2.28,1.68l-42.58,135.16c-.49,1.54.67,3.12,2.28,3.12h25.67c1.07,0,2.02-.72,2.31-1.75l6.4-22.91c.29-1.04,1.23-1.75,2.31-1.75h38.04c1.07,0,2.02.72,2.31,1.75l6.4,22.91c.29,1.04,1.23,1.75,2.31,1.75h25.66c1.62,0,2.77-1.57,2.28-3.12L570.15,3.84c-.31-1-1.24-1.68-2.28-1.68Zm-26.15,85.59l11.52-41.28c.43-1.54,2.62-1.54,3.05,0l11.52,41.28c.35,1.26-.6,2.51-1.9,2.51h-22.29c-1.31,0-2.26-1.25-1.9-2.51Z"/>
    <path class="cls-1" d="m719.92,81.21c-2.26-3.89-5.33-6.98-9.08-9.48-.85-.57-.94-1.78-.18-2.47,1.58-1.45,3.62-3.48,4.71-4.88.74-.95,1.42-1.94,2.04-2.96,3.43-5.59,5.12-12.17,5.12-19.68,0-12.2-4.07-21.98-12.42-28.94-8.15-7.14-19.21-10.63-33.37-10.63h-49.62c-1.32,0-2.4,1.07-2.4,2.4v135.16c0,1.32,1.07,2.4,2.4,2.4h54.17c13.6,0,24.45-3.54,32.13-10.84,7.69-7.09,11.63-17.34,11.63-30.16,0-7.69-1.77-14.39-5.12-19.9Zm-65.44-50.23c0-1.33,1.08-2.4,2.41-2.4l19.33.08c5.62,0,9.71,1.27,12.47,3.64.09.08.18.16.26.25,2.48,2.61,3.82,5.96,3.82,10.58,0,5.08-1.38,8.83-4.14,11.65-2.56,2.63-6.7,3.94-12.41,3.94l-19.35-.08c-1.32,0-2.39-1.08-2.39-2.4v-25.27Zm36.66,80.58c-2.56,2.75-6.7,4.13-12.41,4.13h-21.86c-1.32,0-2.4-1.07-2.4-2.4v-26.75c0-1.32,1.07-2.4,2.4-2.4h21.86c5.62,0,9.72,1.34,12.48,3.82.09.08.18.17.26.26,2.48,2.74,3.82,6.26,3.82,11.11,0,5.32-1.38,9.26-4.14,12.22Z"/>
    <path class="cls-1" d="m976.61,111.56c-3.35,3.55-8.48,5.32-15.37,5.32-7.69,0-13.22-2.16-16.76-6.69-3.55-4.53-5.33-12.22-5.33-22.87v-30.34c0-10.65,1.78-18.34,5.33-22.87,3.54-4.53,9.07-6.69,16.76-6.69,6.89,0,12.01,1.77,15.37,5.32,3.08,3.08,4.83,7.23,5.23,12.41.1,1.25,1.13,2.21,2.38,2.21h24.63c1.34,0,2.45-1.11,2.39-2.45-.53-13.83-5.05-24.53-13.54-32.29-9.07-8.07-21.48-12.21-37.06-12.21-34.08,0-51.43,18.92-51.43,56.17v31.12c0,37.26,17.34,56.17,51.43,56.17,15.58,0,28-4.14,37.06-12.21,8.49-7.75,13.01-18.46,13.54-32.29.05-1.34-1.05-2.45-2.39-2.45h-24.63c-1.25,0-2.28.97-2.38,2.21-.4,5.18-2.15,9.33-5.23,12.41Z"/>
  </g>
  <g>
    <g>
      <path class="cls-1" d="m956.26,206.77h-5.37c-.33,0-.59-.26-.59-.59v-33.32c0-.33.26-.59.59-.59h12.51c3.35,0,6.05.9,8.05,2.75,2,1.85,3,4.4,3,7.55,0,2.25-.5,4.2-1.55,5.75-.98,1.45-2.4,2.54-4.16,3.29-.21.09-.3.33-.2.53l6.89,13.77c.2.39-.09.85-.53.85h-6.22c-.23,0-.44-.13-.53-.34l-6.17-13.19c-.13-.28-.42-.47-.73-.47h-3.79c-.33,0-.59.26-.59.59v12.82c0,.33-.26.59-.59.59Zm10.39-20.7c.85-.8,1.25-1.95,1.25-3.5,0-1.4-.45-2.5-1.3-3.35-.85-.85-2.05-1.25-3.55-1.25h-5.61c-.33,0-.59.26-.59.59v8.17c0,.33.26.59.59.59h5.61c1.55,0,2.75-.4,3.6-1.25Z"/>
      <path class="cls-1" d="m811.03,183.12c0,3.2-1,5.75-3,7.65-2.05,1.95-4.8,2.9-8.3,2.9h-5.76c-.33,0-.59.26-.59.59v11.92c0,.33-.26.59-.59.59h-5.37c-.33,0-.59-.26-.59-.59v-33.32c0-.33.26-.59.59-.59h12.31c3.5,0,6.25.95,8.3,2.9,2,1.95,3,4.6,3,7.95Zm-6.55,0c0-1.65-.45-2.95-1.3-3.85-.9-.85-2.15-1.3-3.75-1.3h-5.46c-.33,0-.59.26-.59.59v8.77c0,.33.26.59.59.59h5.46c1.55,0,2.8-.4,3.7-1.25.9-.85,1.35-2,1.35-3.55Z"/>
      <path class="cls-1" d="m823.06,201.07h13.92c.33,0,.59.26.59.59v4.52c0,.33-.26.59-.59.59h-20.47c-.33,0-.59-.26-.59-.59v-33.32c0-.33.26-.59.59-.59h5.37c.33,0,.59.26.59.59v27.62c0,.33.26.59.59.59Z"/>
      <path class="cls-1" d="m881.16,206.77h-5.42c-.33,0-.59-.26-.59-.59v-27.62c0-.33-.26-.59-.59-.59h-7.62c-.33,0-.59-.26-.59-.59v-4.52c0-.33.26-.59.59-.59h23.02c.33,0,.59.26.59.59v4.52c0,.33-.26.59-.59.59h-7.62c-.33,0-.59.26-.59.59v27.62c0,.33-.26.59-.59.59Z"/>
      <path class="cls-1" d="m912.49,187.26v4.52c0,.33-.26.59-.59.59h-10.22c-.33,0-.59.26-.59.59v13.22c0,.33-.26.59-.59.59h-5.37c-.33,0-.59-.26-.59-.59v-33.32c0-.33.26-.59.59-.59h20.72c.33,0,.59.26.59.59v4.52c0,.33-.26.59-.59.59h-14.17c-.33,0-.59.26-.59.59v7.52c0,.33.26.59.59.59h10.22c.33,0,.59.26.59.59Z"/>
      <path class="cls-1" d="m932.16,171.77c3.85,0,6.85,1.05,9.1,3.2,2.25,2.15,3.35,5.7,3.35,10.55v7.9c0,4.85-1.15,8.35-3.4,10.5-2.3,2.15-5.4,3.25-9.25,3.25-8.25,0-12.35-4.6-12.35-13.75v-7.9c0-9.15,4.2-13.75,12.55-13.75Zm5.9,21.55v-7.45c0-2.95-.5-5.05-1.45-6.4-.95-1.3-2.45-1.95-4.45-1.95-2.1,0-3.6.65-4.55,1.9-.95,1.3-1.4,3.45-1.4,6.45v7.45c0,2.85.45,4.85,1.4,6.1.95,1.25,2.45,1.9,4.55,1.9s3.5-.65,4.45-1.95c.95-1.25,1.45-3.3,1.45-6.05Z"/>
      <path class="cls-1" d="m1004.69,206.18v-18.16c0-.41-.56-.54-.74-.17l-5.65,11.68c-.1.2-.31.33-.53.33h-3.66c-.23,0-.43-.13-.53-.33l-5.75-11.84c-.18-.37-.74-.24-.74.17v18.31c0,.33-.26.59-.59.59h-5.37c-.33,0-.59-.26-.59-.59v-33.32c0-.33.26-.59.59-.59h5.58c.23,0,.44.13.53.34l8.34,17.7c.14.3.57.3.71,0l8.24-17.7c.1-.21.31-.34.54-.34h5.58c.33,0,.59.26.59.59v33.32c0,.33-.26.59-.59.59h-5.37c-.33,0-.59-.26-.59-.59Z"/>
      <path class="cls-1" d="m856.67,172.27h-4.75c-.25,0-.48.16-.56.4l-11.21,33.32c-.13.38.16.78.56.78h5.69c.26,0,.49-.17.57-.42l1.8-6.06c.07-.25.3-.42.57-.42h9.92c.26,0,.49.17.57.42l1.8,6.06c.07.25.3.42.57.42h5.69c.4,0,.69-.4.56-.78l-11.21-33.32c-.08-.24-.31-.4-.56-.4Zm-5.97,21.52l3.22-10.84c.11-.37.64-.37.75,0l3.22,10.84c.09.31-.14.63-.47.63h-6.26c-.33,0-.56-.31-.47-.63Z"/>
    </g>
    <g>
      <path class="cls-1" d="m535.58,196.27h5.05c.28,0,.53.2.58.48.28,1.65.86,2.84,1.78,3.52.95.8,2.4,1.2,4.35,1.2,3.7,0,5.55-1.5,5.55-4.55,0-1.35-.35-2.4-1.1-3.15-.75-.7-1.9-1.2-3.5-1.45l-3.25-.55c-6.25-1.05-9.35-4.25-9.35-9.6,0-3.2,1.05-5.75,3.2-7.6,2.1-1.85,4.9-2.8,8.4-2.8s6.1.9,8.1,2.7c1.82,1.68,2.94,4.01,3.29,6.95.04.35-.24.65-.59.65h-5.11c-.29,0-.55-.22-.58-.51-.16-1.4-.64-2.47-1.4-3.14-.85-.75-2.15-1.15-3.8-1.15s-3,.4-3.85,1.15c-.85.8-1.3,1.9-1.3,3.25,0,1.2.4,2.15,1.15,2.85.75.7,1.95,1.2,3.6,1.5l3.65.65c5.95,1.05,8.9,4.3,8.9,9.7,0,3.45-1.1,6.1-3.3,7.95-2.25,1.85-5.25,2.75-9,2.75s-6.6-.95-8.65-2.8c-1.92-1.74-3.05-4.17-3.39-7.36-.04-.34.24-.64.59-.64Z"/>
      <path class="cls-1" d="m563.72,196.27h5.05c.28,0,.53.2.58.48.28,1.65.86,2.84,1.78,3.52.95.8,2.4,1.2,4.35,1.2,3.7,0,5.55-1.5,5.55-4.55,0-1.35-.35-2.4-1.1-3.15-.75-.7-1.9-1.2-3.5-1.45l-3.25-.55c-6.25-1.05-9.35-4.25-9.35-9.6,0-3.2,1.05-5.75,3.2-7.6,2.1-1.85,4.9-2.8,8.4-2.8s6.1.9,8.1,2.7c1.82,1.68,2.94,4.01,3.29,6.95.04.35-.24.65-.59.65h-5.11c-.29,0-.55-.22-.58-.51-.16-1.4-.64-2.47-1.4-3.14-.85-.75-2.15-1.15-3.8-1.15s-3,.4-3.85,1.15c-.85.8-1.3,1.9-1.3,3.25,0,1.2.4,2.15,1.15,2.85.75.7,1.95,1.2,3.6,1.5l3.65.65c5.95,1.05,8.9,4.3,8.9,9.7,0,3.45-1.1,6.1-3.3,7.95-2.25,1.85-5.25,2.75-9,2.75s-6.6-.95-8.65-2.8c-1.92-1.74-3.05-4.17-3.39-7.36-.04-.34.24-.64.59-.64Z"/>
      <path class="cls-1" d="m594.52,201.42c-1.05-1.75-1.6-3.8-1.6-6.05v-22.51c0-.33.26-.59.59-.59h5.37c.33,0,.59.26.59.59v22.31c0,1.95.5,3.5,1.55,4.55,1.05,1.1,2.45,1.65,4.25,1.65s3.25-.55,4.3-1.65c1.05-1.05,1.55-2.6,1.55-4.55v-22.31c0-.33.26-.59.59-.59h5.42c.33,0,.59.26.59.59v22.51c0,2.25-.55,4.3-1.6,6.05-1.1,1.8-2.6,3.2-4.45,4.15-1.9,1-4.05,1.5-6.4,1.5s-4.45-.5-6.3-1.5c-1.9-.95-3.4-2.35-4.45-4.15Z"/>
      <path class="cls-1" d="m630.32,206.77h-5.37c-.33,0-.59-.26-.59-.59v-33.32c0-.33.26-.59.59-.59h12.51c3.35,0,6.05.9,8.05,2.75,2,1.85,3,4.4,3,7.55,0,2.25-.5,4.2-1.55,5.75-.98,1.45-2.4,2.54-4.16,3.29-.21.09-.3.33-.2.53l6.89,13.77c.2.39-.09.85-.53.85h-6.22c-.23,0-.44-.13-.53-.34l-6.17-13.19c-.13-.28-.42-.47-.73-.47h-3.8c-.33,0-.59.26-.59.59v12.82c0,.33-.26.59-.59.59Zm10.39-20.7c.85-.8,1.25-1.95,1.25-3.5,0-1.4-.45-2.5-1.3-3.35-.85-.85-2.05-1.25-3.55-1.25h-5.61c-.33,0-.59.26-.59.59v8.17c0,.33.26.59.59.59h5.61c1.55,0,2.75-.4,3.6-1.25Z"/>
      <path class="cls-1" d="m703.14,206.48l-11.8-20.03c-.2-.34-.73-.2-.73.2v19.53c0,.33-.26.59-.59.59h-5.37c-.33,0-.59-.26-.59-.59v-33.32c0-.33.26-.59.59-.59h5.62c.21,0,.4.11.51.29l11.8,20.07c.2.34.73.2.73-.2v-19.57c0-.33.26-.59.59-.59h5.37c.33,0,.59.26.59.59v33.32c0,.33-.26.59-.59.59h-5.62c-.21,0-.4-.11-.51-.29Z"/>
      <path class="cls-1" d="m764.7,187.26v4.52c0,.33-.26.59-.59.59h-10.22c-.33,0-.59.26-.59.59v7.52c0,.33.26.59.59.59h14.17c.33,0,.59.26.59.59v4.52c0,.33-.26.59-.59.59h-20.72c-.33,0-.59-.26-.59-.59v-33.32c0-.33.26-.59.59-.59h20.72c.33,0,.59.26.59.59v4.52c0,.33-.26.59-.59.59h-14.17c-.33,0-.59.26-.59.59v7.52c0,.33.26.59.59.59h10.22c.33,0,.59.26.59.59Z"/>
      <path class="cls-1" d="m735.07,195.67h5.38c.33,0,.6.27.59.6-.12,3.36-1.21,6.01-3.34,7.9-2.25,2-5.25,3-9,3-8.45,0-12.65-4.6-12.65-13.75v-7.9c0-9.15,4.2-13.75,12.65-13.75,3.75,0,6.75,1,9,3,2.13,1.89,3.22,4.54,3.34,7.9.01.33-.26.6-.59.6h-5.38c-.31,0-.57-.23-.59-.54-.09-1.5-.59-2.72-1.48-3.66-1.05-1.05-2.5-1.55-4.35-1.55-2.1,0-3.6.65-4.55,1.95-.95,1.3-1.45,3.45-1.45,6.4v7.19c0,2.95.5,5.1,1.45,6.4.95,1.3,2.45,1.95,4.55,1.95,1.85,0,3.3-.5,4.35-1.55.89-.94,1.39-2.16,1.48-3.66.02-.3.28-.54.59-.54Z"/>
      <path class="cls-1" d="m521.2,172.27h-4.75c-.25,0-.48.16-.56.4l-11.21,33.32c-.13.38.16.78.56.78h5.69c.26,0,.49-.17.57-.42l1.8-6.06c.07-.25.3-.42.57-.42h9.92c.26,0,.49.17.57.42l1.8,6.06c.07.25.3.42.57.42h5.69c.4,0,.69-.4.56-.78l-11.21-33.32c-.08-.24-.31-.4-.56-.4Zm-5.97,21.52l3.22-10.84c.11-.37.64-.37.75,0l3.22,10.84c.09.31-.14.63-.47.63h-6.26c-.33,0-.56-.31-.47-.63Z"/>
      <path class="cls-1" d="m668.64,172.27h-4.75c-.25,0-.48.16-.56.4l-11.21,33.32c-.13.38.16.78.56.78h5.69c.26,0,.49-.17.57-.42l1.8-6.06c.07-.25.3-.42.57-.42h9.92c.26,0,.49.17.57.42l1.8,6.06c.07.25.3.42.57.42h5.69c.4,0,.69-.4.56-.78l-11.21-33.32c-.08-.24-.31-.4-.56-.4Zm-5.97,21.52l3.22-10.84c.11-.37.64-.37.75,0l3.22,10.84c.09.31-.14.63-.47.63h-6.26c-.33,0-.56-.31-.47-.63Z"/>
    </g>
    <g>
      <path class="cls-1" d="m297.54,206.48l-11.8-20.03c-.2-.34-.73-.2-.73.2v19.53c0,.33-.26.59-.59.59h-5.37c-.33,0-.59-.26-.59-.59v-33.32c0-.33.26-.59.59-.59h5.62c.21,0,.4.11.51.29l11.8,20.07c.2.34.73.2.73-.2v-19.57c0-.33.26-.59.59-.59h5.37c.33,0,.59.26.59.59v33.32c0,.33-.26.59-.59.59h-5.62c-.21,0-.4-.11-.51-.29Z"/>
      <path class="cls-1" d="m350.41,206.77h-5.42c-.33,0-.59-.26-.59-.59v-27.62c0-.33-.26-.59-.59-.59h-7.62c-.33,0-.59-.26-.59-.59v-4.52c0-.33.26-.59.59-.59h23.02c.33,0,.59.26.59.59v4.52c0,.33-.26.59-.59.59h-7.62c-.33,0-.59.26-.59.59v27.62c0,.33-.26.59-.59.59Z"/>
      <path class="cls-1" d="m416.79,171.77c3.85,0,6.85,1.05,9.1,3.2,2.25,2.15,3.35,5.7,3.35,10.55v7.9c0,4.85-1.15,8.35-3.4,10.5-2.3,2.15-5.4,3.25-9.25,3.25-8.25,0-12.35-4.6-12.35-13.75v-7.9c0-9.15,4.2-13.75,12.55-13.75Zm5.9,21.55v-7.45c0-2.95-.5-5.05-1.45-6.4-.95-1.3-2.45-1.95-4.45-1.95-2.1,0-3.6.65-4.55,1.9-.95,1.3-1.4,3.45-1.4,6.45v7.45c0,2.85.45,4.85,1.4,6.1.95,1.25,2.45,1.9,4.55,1.9s3.5-.65,4.45-1.95c.95-1.25,1.45-3.3,1.45-6.05Z"/>
      <path class="cls-1" d="m440.89,206.77h-5.37c-.33,0-.59-.26-.59-.59v-33.32c0-.33.26-.59.59-.59h12.51c3.35,0,6.05.9,8.05,2.75,2,1.85,3,4.4,3,7.55,0,2.25-.5,4.2-1.55,5.75-.98,1.45-2.4,2.54-4.16,3.29-.21.09-.3.33-.2.53l6.89,13.77c.2.39-.09.85-.53.85h-6.22c-.23,0-.44-.13-.53-.34l-6.17-13.19c-.13-.28-.42-.47-.73-.47h-3.8c-.33,0-.59.26-.59.59v12.82c0,.33-.26.59-.59.59Zm10.39-20.7c.85-.8,1.25-1.95,1.25-3.5,0-1.4-.45-2.5-1.3-3.35-.85-.85-2.05-1.25-3.55-1.25h-5.61c-.33,0-.59.26-.59.59v8.17c0,.33.26.59.59.59h5.61c1.55,0,2.75-.4,3.6-1.25Z"/>
      <path class="cls-1" d="m471.13,206.77h-5.37c-.33,0-.59-.26-.59-.59v-33.32c0-.33.26-.59.59-.59h5.37c.33,0,.59.26.59.59v14.33c0,.38.48.53.7.23l11.07-14.91c.11-.15.29-.24.47-.24h6.33c.49,0,.77.57.46.96l-9.94,12.46c-.21.26-.23.62-.07.91l11.16,19.28c.23.39-.06.89-.51.89h-6.23c-.21,0-.41-.12-.52-.3l-8.1-14.54c-.14-.24-.47-.27-.65-.05l-4.01,5.03c-.11.14-.18.32-.18.51v8.77c0,.33-.26.59-.59.59Z"/>
      <path class="cls-1" d="m401.53,172.99l-7.49,33.32c-.06.27-.3.46-.58.46h-5.6c-.28,0-.52-.19-.58-.46l-5.17-23.36c-.09-.41-.67-.41-.76,0l-5.17,23.36c-.06.27-.3.46-.58.46h-5.6c-.28,0-.52-.19-.58-.46l-7.49-33.32c-.08-.37.2-.72.58-.72h5.33c.28,0,.52.19.58.47l4.66,21.59c.09.41.68.41.76,0l4.41-21.57c.06-.27.3-.47.58-.47h5.78c.28,0,.52.2.58.47l4.41,21.57c.08.41.67.42.76,0l4.66-21.59c.06-.27.3-.47.58-.47h5.33c.38,0,.66.35.58.72Z"/>
      <path class="cls-1" d="m328.86,187.26v4.52c0,.33-.26.59-.59.59h-10.22c-.33,0-.59.26-.59.59v7.52c0,.33.26.59.59.59h14.17c.33,0,.59.26.59.59v4.52c0,.33-.26.59-.59.59h-20.72c-.33,0-.59-.26-.59-.59v-33.32c0-.33.26-.59.59-.59h20.72c.33,0,.59.26.59.59v4.52c0,.33-.26.59-.59.59h-14.17c-.33,0-.59.26-.59.59v7.52c0,.33.26.59.59.59h10.22c.33,0,.59.26.59.59Z"/>
    </g>
    <g>
      <path class="cls-1" d="m33.62,201.42c-1.05-1.75-1.6-3.8-1.6-6.05v-22.51c0-.33.26-.59.59-.59h5.37c.33,0,.59.26.59.59v22.31c0,1.95.5,3.5,1.55,4.55,1.05,1.1,2.45,1.65,4.25,1.65s3.25-.55,4.3-1.65c1.05-1.05,1.55-2.6,1.55-4.55v-22.31c0-.33.26-.59.59-.59h5.42c.33,0,.59.26.59.59v22.51c0,2.25-.55,4.3-1.6,6.05-1.1,1.8-2.6,3.2-4.45,4.15-1.9,1-4.05,1.5-6.4,1.5s-4.45-.5-6.3-1.5c-1.9-.95-3.4-2.35-4.45-4.15Z"/>
      <path class="cls-1" d="m75.62,206.77h-5.42c-.33,0-.59-.26-.59-.59v-27.62c0-.33-.26-.59-.59-.59h-7.62c-.33,0-.59-.26-.59-.59v-4.52c0-.33.26-.59.59-.59h23.02c.33,0,.59.26.59.59v4.52c0,.33-.26.59-.59.59h-7.62c-.33,0-.59.26-.59.59v27.62c0,.33-.26.59-.59.59Z"/>
      <path class="cls-1" d="m99.6,171.77c3.85,0,6.85,1.05,9.1,3.2,2.25,2.15,3.35,5.7,3.35,10.55v7.9c0,4.85-1.15,8.35-3.4,10.5-2.3,2.15-5.4,3.25-9.25,3.25-8.25,0-12.35-4.6-12.35-13.75v-7.9c0-9.15,4.2-13.75,12.55-13.75Zm5.9,21.55v-7.45c0-2.95-.5-5.05-1.45-6.4-.95-1.3-2.45-1.95-4.45-1.95-2.1,0-3.6.65-4.55,1.9-.95,1.3-1.4,3.45-1.4,6.45v7.45c0,2.85.45,4.85,1.4,6.1.95,1.25,2.45,1.9,4.55,1.9s3.5-.65,4.45-1.95c.95-1.25,1.45-3.3,1.45-6.05Z"/>
      <path class="cls-1" d="m141.9,206.18v-18.13c0-.42-.56-.54-.74-.17l-5.65,11.9c-.1.21-.31.34-.53.34h-3.65c-.23,0-.44-.13-.53-.34l-5.75-12.06c-.18-.38-.74-.25-.74.17v18.28c0,.33-.26.59-.59.59h-5.37c-.33,0-.59-.26-.59-.59v-33.32c0-.33.26-.59.59-.59h5.58c.23,0,.44.13.54.34l8.34,17.94c.14.3.57.3.71,0l8.24-17.94c.1-.21.31-.34.54-.34h5.58c.33,0,.59.26.59.59v33.32c0,.33-.26.59-.59.59h-5.37c-.33,0-.59-.26-.59-.59Z"/>
      <path class="cls-1" d="m193.11,206.77h-5.42c-.33,0-.59-.26-.59-.59v-27.62c0-.33-.26-.59-.59-.59h-7.62c-.33,0-.59-.26-.59-.59v-4.52c0-.33.26-.59.59-.59h23.02c.33,0,.59.26.59.59v4.52c0,.33-.26.59-.59.59h-7.62c-.33,0-.59.26-.59.59v27.62c0,.33-.26.59-.59.59Z"/>
      <path class="cls-1" d="m255.09,175.47c2.2,2.15,3.3,5.65,3.3,10.5v7.05c0,4.85-1.15,8.35-3.4,10.5-2.25,2.15-5.35,3.25-9.2,3.25h-11.36c-.33,0-.59-.26-.59-.59v-33.32c0-.33.26-.59.59-.59h11.56c3.85,0,6.85,1.05,9.1,3.2Zm-4.7,23.65c.95-1.3,1.45-3.35,1.45-6.15v-6.65c0-2.95-.5-5.05-1.45-6.4-.95-1.3-2.45-1.95-4.45-1.95h-4.96c-.33,0-.59.26-.59.59v21.92c0,.33.26.59.59.59h4.96c1.95,0,3.45-.65,4.45-1.95Z"/>
      <path class="cls-1" d="m224.45,187.26v4.52c0,.33-.26.59-.59.59h-10.22c-.33,0-.59.26-.59.59v7.52c0,.33.26.59.59.59h14.17c.33,0,.59.26.59.59v4.52c0,.33-.26.59-.59.59h-20.72c-.33,0-.59-.26-.59-.59v-33.32c0-.33.26-.59.59-.59h20.72c.33,0,.59.26.59.59v4.52c0,.33-.26.59-.59.59h-14.17c-.33,0-.59.26-.59.59v7.52c0,.33.26.59.59.59h10.22c.33,0,.59.26.59.59Z"/>
      <path class="cls-1" d="m16.59,172.27h-4.75c-.25,0-.48.16-.56.4L.08,205.99c-.13.38.16.78.56.78h5.69c.26,0,.49-.17.57-.42l1.8-6.06c.07-.25.3-.42.57-.42h9.92c.26,0,.49.17.57.42l1.8,6.06c.07.25.3.42.57.42h5.69c.4,0,.69-.4.56-.78l-11.21-33.32c-.08-.24-.31-.4-.56-.4Zm-5.97,21.52l3.22-10.84c.11-.37.64-.37.75,0l3.22,10.84c.09.31-.14.63-.47.63h-6.26c-.33,0-.56-.31-.47-.63Z"/>
      <path class="cls-1" d="m169.09,172.27h-4.75c-.25,0-.48.16-.56.4l-11.21,33.32c-.13.38.16.78.56.78h5.69c.26,0,.49-.17.57-.42l1.8-6.06c.07-.25.3-.42.57-.42h9.92c.26,0,.49.17.57.42l1.8,6.06c.07.25.3.42.57.42h5.69c.4,0,.69-.4.56-.78l-11.21-33.32c-.08-.24-.31-.4-.56-.4Zm-5.97,21.52l3.22-10.84c.11-.37.64-.37.75,0l3.22,10.84c.09.31-.14.63-.47.63h-6.26c-.33,0-.56-.31-.47-.63Z"/>
    </g>
  </g>
</svg>